<svg width="407" height="84" viewBox="0 0 407 84" fill="none" xmlns="http://www.w3.org/2000/svg">
<g clip-path="url(#clip0_8836_2568)">
<path d="M97.0047 56.9847V33.0592H85.043V26.4414H115.584V33.0592H103.623V56.9847H97.0047Z" fill="white"/>
<path d="M118.766 56.9829V26.4844H142.986C144.146 26.4844 145.198 26.7672 146.147 27.333C147.093 27.8987 147.858 28.6618 148.438 29.6244C149.018 30.5869 149.307 31.6329 149.307 32.7624V40.652C149.307 41.7835 149.016 42.8295 148.438 43.7921C147.858 44.7546 147.095 45.5177 146.147 46.0835C145.198 46.6492 144.146 46.9321 142.986 46.9321L125.341 46.9748V56.985H118.766V56.9829ZM142.648 40.3122V33.0574H125.341V40.3122H142.648ZM142.479 56.9829L133.613 46.4213H142.223L149.264 54.7363V56.985H142.477L142.479 56.9829Z" fill="white"/>
<path d="M153.848 56.9827V26.4414H182.057V33.0592H160.508V38.4052H177.857V45.023H160.508V50.3669H182.057V56.9847H153.848V56.9827Z" fill="white"/>
<path d="M186.254 56.9827V26.4414H193.041L210.135 46.8016V26.4414H216.795V56.9827H210.008L192.829 36.537V56.9827H186.254Z" fill="white"/>
<path d="M227.821 56.9827C226.661 56.9827 225.607 56.6998 224.661 56.1341C223.712 55.5684 222.957 54.8113 222.392 53.8651C221.826 52.9188 221.543 51.8647 221.543 50.7047V32.7194C221.543 31.5594 221.826 30.5073 222.392 29.559C222.957 28.6127 223.712 27.8557 224.661 27.29C225.607 26.7243 226.661 26.4414 227.821 26.4414H252.001V33.0592H229.518C229.066 33.0592 228.718 33.1732 228.478 33.3991C228.238 33.625 228.118 33.979 228.118 34.4593V48.9668C228.118 49.4206 228.238 49.7666 228.478 50.0067C228.718 50.2468 229.064 50.3669 229.518 50.3669H252.001V56.9847H227.821V56.9827Z" fill="white"/>
<path d="M256.453 56.9827V26.4414H263.028V38.4031H281.056V26.4414H287.631V56.9827H281.056V45.021H263.028V56.9827H256.453Z" fill="white"/>
<path d="M312.364 56.9847C311.232 56.9847 310.186 56.7019 309.226 56.1361C308.263 55.5704 307.5 54.8073 306.935 53.8447C306.369 52.8842 306.086 51.8362 306.086 50.7047V47.8618H312.661V50.3649H329.969V45.021H312.364C311.232 45.021 310.186 44.7381 309.226 44.1724C308.263 43.6066 307.5 42.8516 306.935 41.9033C306.369 40.9571 306.086 39.9029 306.086 38.743V32.7194C306.086 31.5594 306.369 30.5073 306.935 29.559C307.5 28.6128 308.263 27.8557 309.226 27.29C310.186 26.7243 311.234 26.4414 312.364 26.4414H330.349C331.481 26.4414 332.519 26.7243 333.467 27.29C334.413 27.8557 335.178 28.6128 335.758 29.559C336.338 30.5073 336.627 31.5594 336.627 32.7194V35.5623H329.967V33.0592H312.659V38.4052H330.347C331.479 38.4052 332.517 38.688 333.465 39.2538C334.411 39.8195 335.176 40.5765 335.756 41.5228C336.336 42.4711 336.625 43.5232 336.625 44.6831V50.7067C336.625 51.8382 336.334 52.8842 335.756 53.8468C335.176 54.8093 334.413 55.5724 333.465 56.1382C332.517 56.7039 331.479 56.9868 330.347 56.9868H312.362L312.364 56.9847Z" fill="white"/>
<path d="M341.293 56.9829V26.4844H365.514C366.673 26.4844 367.726 26.7672 368.674 27.333C369.62 27.8987 370.385 28.6618 370.965 29.6244C371.545 30.5869 371.834 31.6329 371.834 32.7624V40.652C371.834 41.7835 371.543 42.8295 370.965 43.7921C370.385 44.7546 369.622 45.5177 368.674 46.0835C367.726 46.6492 366.673 46.9321 365.514 46.9321L347.868 46.9748V56.985H341.293V56.9829ZM365.176 40.3122V33.0574H347.868V40.3122H365.176Z" fill="white"/>
<path d="M386.215 56.9827V45.5724L372.09 26.4414H379.937L389.524 38.4886L399.068 26.4414H407L392.833 45.6152V56.9827H386.215Z" fill="white"/>
<path d="M33.7341 27.0396L25.0182 25.9367C24.6783 25.8939 24.4769 26.3091 24.7211 26.5472C29.0332 30.7494 32.5518 28.7958 33.9172 27.703C34.1757 27.4955 34.0617 27.0824 33.7321 27.0396H33.7341Z" fill="white"/>
<path d="M49.5259 25.9328L40.81 27.0357C40.4824 27.0764 40.3684 27.4916 40.6249 27.6991C41.9903 28.7919 45.5089 30.7455 49.821 26.5433C50.0673 26.3031 49.8637 25.89 49.5239 25.9328H49.5259Z" fill="white"/>
<path d="M37.8729 49.1693C37.9217 49.147 37.9705 49.1246 38.0194 49.0981C38.0438 49.0839 38.0682 49.0696 38.0926 49.0554C38.1252 49.0371 38.1557 49.0187 38.1883 48.9984C38.2208 48.976 38.2534 48.9516 38.286 48.9272C38.3043 48.9129 38.3246 48.9007 38.3429 48.8865C38.345 48.8844 38.349 48.8804 38.3511 48.8783C38.3857 48.8498 38.4182 48.8193 38.4508 48.7888C38.4691 48.7705 38.4895 48.7542 38.5078 48.7359C38.5322 48.7115 38.5566 48.683 38.579 48.6565C38.6014 48.6321 38.6258 48.6077 38.6462 48.5812C38.6462 48.5792 38.6502 48.5772 38.6523 48.5751C38.6746 48.5466 38.695 48.5161 38.7174 48.4876C38.7337 48.4652 38.752 48.4428 38.7662 48.4205C38.8029 48.3655 38.8354 48.3106 38.8659 48.2536C38.8659 48.2536 38.8659 48.2536 38.8659 48.2516C38.9901 48.0216 39.0654 47.7713 39.0959 47.5128C39.0959 47.5047 39.0979 47.4945 39.1 47.4864C39.104 47.4437 39.1061 47.403 39.1081 47.3602C39.1081 47.3317 39.1122 47.3053 39.1122 47.2768C39.1122 47.2483 39.1122 47.2198 39.1081 47.1934C39.1081 47.1527 39.1061 47.1099 39.102 47.0692C39.102 47.0651 39.102 47.059 39.102 47.055C39.102 47.0367 39.0959 47.0204 39.0939 47.0021C39.0878 46.9573 39.0816 46.9125 39.0735 46.8678C39.0694 46.8433 39.0633 46.821 39.0572 46.7965C39.0471 46.7558 39.0369 46.7131 39.0247 46.6724C39.0165 46.6459 39.0064 46.6174 38.9962 46.591C38.984 46.5544 38.9718 46.5198 38.9575 46.4852C38.9453 46.4526 38.929 46.4221 38.9148 46.3916C38.9005 46.3631 38.8883 46.3325 38.872 46.3041C38.8537 46.2674 38.8313 46.2349 38.811 46.2003C38.7967 46.1779 38.7845 46.1535 38.7683 46.1311C38.7438 46.0924 38.7153 46.0558 38.6869 46.0192C38.6746 46.0029 38.6645 45.9866 38.6523 45.9724C38.6502 45.9683 38.6462 45.9662 38.6441 45.9642C38.6217 45.9378 38.5994 45.9133 38.5749 45.8869C38.5505 45.8604 38.5261 45.8319 38.4996 45.8055C38.4874 45.7933 38.4752 45.7831 38.463 45.7709C38.4243 45.7343 38.3836 45.6976 38.3429 45.663C38.3429 45.663 38.3429 45.663 38.3409 45.661C38.3328 45.6549 38.3246 45.6508 38.3185 45.6447C38.2351 45.5776 38.1455 45.5185 38.0519 45.4656C38.0519 45.4656 38.0479 45.4656 38.0479 45.4636C38.0173 45.4473 37.9868 45.4331 37.9563 45.4168C37.9278 45.4026 37.9013 45.3883 37.8729 45.3761C37.8484 45.3659 37.824 45.3557 37.7996 45.3476C37.7609 45.3334 37.7223 45.3191 37.6836 45.3049C37.6653 45.2988 37.647 45.2927 37.6287 45.2886C37.5819 45.2743 37.533 45.2621 37.4842 45.252C37.4699 45.2499 37.4577 45.2459 37.4435 45.2438C37.3865 45.2336 37.3315 45.2235 37.2746 45.2174C37.2685 45.2174 37.2624 45.2153 37.2563 45.2153C37.2542 45.2153 37.2522 45.2153 37.2501 45.2153C37.181 45.2092 37.1118 45.2031 37.0405 45.2031C37.0405 45.2031 37.0405 45.2031 37.0385 45.2031C37.0365 45.2031 37.0385 45.2031 37.0365 45.2031C36.9652 45.2031 36.8961 45.2072 36.8269 45.2153C36.8248 45.2153 36.8228 45.2153 36.8208 45.2153C36.8147 45.2153 36.8086 45.2153 36.8024 45.2174C36.7455 45.2235 36.6885 45.2316 36.6335 45.2438C36.6193 45.2459 36.6071 45.2499 36.5928 45.252C36.544 45.2621 36.4972 45.2743 36.4484 45.2886C36.43 45.2947 36.4117 45.2988 36.3934 45.3049C36.3547 45.3171 36.3161 45.3313 36.2774 45.3476C36.253 45.3578 36.2286 45.3659 36.2042 45.3761C36.1757 45.3883 36.1492 45.4026 36.1207 45.4168C36.0902 45.431 36.0576 45.4473 36.0291 45.4636C36.0291 45.4636 36.0251 45.4636 36.0251 45.4656C35.9315 45.5185 35.844 45.5776 35.7585 45.6447C35.7504 45.6508 35.7422 45.6549 35.7361 45.661C35.7361 45.661 35.7361 45.661 35.7341 45.663C35.6934 45.6976 35.6527 45.7322 35.614 45.7709C35.6018 45.7831 35.5896 45.7933 35.5774 45.8055C35.5509 45.8319 35.5265 45.8584 35.5021 45.8869C35.4797 45.9113 35.4553 45.9378 35.4329 45.9642C35.4309 45.9683 35.4268 45.9703 35.4248 45.9724C35.4125 45.9886 35.4024 46.0049 35.3902 46.0192C35.3617 46.0558 35.3352 46.0924 35.3088 46.1311C35.2945 46.1535 35.2803 46.1779 35.266 46.2003C35.2457 46.2349 35.2233 46.2695 35.205 46.3041C35.1887 46.3325 35.1765 46.3631 35.1622 46.3916C35.148 46.4221 35.1317 46.4526 35.1195 46.4852C35.1053 46.5198 35.093 46.5564 35.0808 46.591C35.0707 46.6174 35.0605 46.6439 35.0523 46.6724C35.0401 46.7131 35.03 46.7558 35.0198 46.7965C35.0137 46.821 35.0076 46.8433 35.0035 46.8678C34.9954 46.9125 34.9893 46.9573 34.9832 47.0021C34.9811 47.0204 34.9771 47.0367 34.975 47.055C34.975 47.059 34.975 47.0651 34.975 47.0692C34.9709 47.1099 34.9689 47.1527 34.9689 47.1934C34.9689 47.2218 34.9648 47.2503 34.9648 47.2768C34.9648 47.3053 34.9669 47.3317 34.9689 47.3602C34.9689 47.403 34.973 47.4457 34.9771 47.4864C34.9771 47.4945 34.9791 47.5047 34.9811 47.5128C35.0096 47.7713 35.0869 48.0216 35.2111 48.2516C35.2111 48.2516 35.2111 48.2516 35.2111 48.2536C35.2416 48.3106 35.2742 48.3655 35.3108 48.4205C35.3271 48.4428 35.3434 48.4652 35.3596 48.4876C35.38 48.5161 35.4003 48.5466 35.4248 48.5751C35.4248 48.5772 35.4288 48.5792 35.4309 48.5812C35.4512 48.6077 35.4756 48.6321 35.498 48.6565C35.5224 48.683 35.5448 48.7115 35.5692 48.7359C35.5876 48.7542 35.6079 48.7705 35.6262 48.7888C35.6588 48.8193 35.6913 48.8498 35.7259 48.8783C35.728 48.8804 35.732 48.8844 35.7341 48.8865C35.7524 48.9007 35.7727 48.9129 35.7911 48.9272C35.8236 48.9516 35.8541 48.976 35.8887 48.9984C35.9193 49.0187 35.9518 49.0371 35.9844 49.0554C36.0088 49.0696 36.0332 49.0859 36.0576 49.0981C36.1044 49.1246 36.1533 49.147 36.2042 49.1693C36.2143 49.1734 36.2245 49.1795 36.2326 49.1836C36.4667 49.2833 36.719 49.3362 36.9754 49.3423C36.9958 49.3423 37.0161 49.3443 37.0385 49.3443C37.0589 49.3443 37.0792 49.3443 37.1016 49.3423C37.36 49.3362 37.6103 49.2813 37.8444 49.1836C37.8545 49.1795 37.8647 49.1734 37.8729 49.1693Z" fill="white"/>
<path d="M50.4575 57.6907C50.4718 57.6989 50.486 57.709 50.5023 57.7172C50.5369 57.7355 50.5735 57.7518 50.6081 57.768C50.8157 57.8657 51.0396 57.9308 51.2736 57.9573C51.3428 57.9654 51.414 57.9675 51.4832 57.9695C51.4873 57.9695 51.4893 57.9695 51.4934 57.9695C51.5564 57.9695 51.6195 57.9654 51.6806 57.9614C51.6847 57.9614 51.6908 57.9614 51.6948 57.9614C51.7538 57.9553 51.8129 57.9471 51.8698 57.937C51.8861 57.9349 51.9004 57.9308 51.9166 57.9268C51.9634 57.9166 52.0103 57.9064 52.0571 57.8922C52.0754 57.8881 52.0917 57.882 52.11 57.8759C52.1547 57.8617 52.1975 57.8474 52.2402 57.8291C52.2585 57.823 52.2748 57.8149 52.2931 57.8087C52.3359 57.7904 52.3786 57.7701 52.4213 57.7497C52.4376 57.7416 52.4539 57.7335 52.4681 57.7253C52.5129 57.7009 52.5556 57.6765 52.5984 57.648C52.6106 57.6398 52.6228 57.6337 52.635 57.6256C52.6899 57.589 52.7429 57.5503 52.7937 57.5096C53.1702 57.2044 53.4246 56.7872 53.5202 56.3191C53.5345 56.252 53.5446 56.1848 53.5528 56.1156C53.6667 55.0513 52.9464 54.0847 51.9207 53.869C51.8515 53.8547 51.7823 53.8446 51.7111 53.8364C51.6358 53.8283 51.5605 53.8242 51.4873 53.8242C51.2512 53.8242 51.0192 53.8649 50.8015 53.9422C50.5817 54.0196 50.3761 54.1356 50.191 54.2862C49.7595 54.6341 49.4909 55.1287 49.4339 55.6781C49.3749 56.2296 49.5337 56.7689 49.8816 57.2003C50.0444 57.4017 50.2398 57.5666 50.4596 57.6928L50.4575 57.6907Z" fill="white"/>
<path d="M23.8854 54.2862C23.6534 54.0969 23.3888 53.9646 23.108 53.8914C22.9391 53.8466 22.7641 53.8242 22.5891 53.8242C22.5158 53.8242 22.4405 53.8283 22.3652 53.8364C22.294 53.8446 22.2248 53.8547 22.1556 53.869C21.13 54.0847 20.4096 55.0513 20.5236 56.1156C20.5317 56.1848 20.5419 56.252 20.5561 56.3191C20.6518 56.7872 20.9061 57.2044 21.2826 57.5096C21.3335 57.5503 21.3864 57.589 21.4414 57.6256C21.4536 57.6337 21.4658 57.6419 21.478 57.648C21.5207 57.6744 21.5635 57.7009 21.6082 57.7253C21.6245 57.7335 21.6408 57.7416 21.655 57.7497C21.6978 57.7701 21.7385 57.7904 21.7832 57.8087C21.7995 57.8169 21.8178 57.823 21.8361 57.8291C21.8789 57.8454 21.9236 57.8617 21.9664 57.8759C21.9847 57.882 22.001 57.8861 22.0193 57.8922C22.0661 57.9044 22.1129 57.9166 22.1597 57.9268C22.176 57.9308 22.1902 57.9329 22.2065 57.937C22.2635 57.9471 22.3225 57.9553 22.3815 57.9614C22.3856 57.9614 22.3917 57.9614 22.3958 57.9614C22.4589 57.9675 22.5199 57.9695 22.583 57.9695C22.5871 57.9695 22.5891 57.9695 22.5932 57.9695C22.6624 57.9695 22.7336 57.9654 22.8028 57.9573C23.0368 57.9308 23.2627 57.8657 23.4702 57.768C23.5048 57.7518 23.5415 57.7355 23.5761 57.7172C23.5903 57.709 23.6046 57.6989 23.6188 57.6907C23.8386 57.5645 24.0339 57.3997 24.1988 57.1962C24.5468 56.7668 24.7075 56.2255 24.6465 55.674C24.5895 55.1246 24.3209 54.6301 23.8895 54.2821L23.8854 54.2862Z" fill="white"/>
<path d="M73.5846 31.3841C74.6061 30.0857 73.9509 28.1647 72.3493 27.7597L68.5296 26.7911L60.8902 24.8843C59.6509 24.575 58.3648 25.1712 57.7991 26.3169L56.6696 28.6063L51.8121 38.4638C51.5272 39.0397 50.6542 38.7447 50.7783 38.1138L52.0014 31.8704C52.0827 31.4512 51.6839 31.0992 51.2769 31.2335C47.4694 32.487 42.7889 32.7984 37.6566 30.4663C37.2659 30.2892 36.8182 30.2892 36.4275 30.4663C31.515 32.6966 26.9953 32.5074 23.2814 31.3902C22.8785 31.2681 22.4898 31.6181 22.5712 32.0312L23.7617 38.1138C23.8858 38.7447 23.0107 39.0397 22.7279 38.4638L18.0881 29.0499L16.7144 26.264C16.1508 25.1203 14.8667 24.5241 13.6294 24.8293L13.2712 24.9189H13.2753L12.9965 24.9881L3.94483 27.2286L1.73685 27.776C0.127165 28.1749 -0.53421 30.1 0.489395 31.4044L11.0673 44.87C11.5354 45.4663 11.283 46.3454 10.5708 46.6018L5.51585 48.4252C4.20124 48.8993 3.80645 50.568 4.77104 51.5814L27.8215 75.802C28.0942 76.0889 28.5785 75.8956 28.5785 75.4988V63.8179C28.5785 63.6286 28.5032 63.4475 28.3689 63.3153L28.0006 62.9469L25.1149 60.0613C25.1149 60.0613 25.1088 60.0633 25.1068 60.0674C25.0376 60.1081 24.9684 60.1488 24.8992 60.1875C24.8646 60.2058 24.826 60.2241 24.7914 60.2424C24.7527 60.2607 24.7161 60.2811 24.6794 60.2994C24.6347 60.3197 24.5919 60.338 24.5472 60.3584C24.5166 60.3726 24.482 60.3848 24.4515 60.3991C24.3986 60.4215 24.3457 60.4418 24.2948 60.4622C24.2663 60.4724 24.2378 60.4825 24.2094 60.4927L24.071 60.5395C24.0405 60.5497 24.0099 60.5599 23.9774 60.568C23.9285 60.5822 23.8817 60.5945 23.8329 60.6087C23.7983 60.6189 23.7637 60.627 23.7291 60.6352C23.6823 60.6474 23.6355 60.6575 23.5887 60.6677C23.548 60.6759 23.5073 60.684 23.4645 60.6901C23.4238 60.6982 23.3811 60.7064 23.3384 60.7125C23.2549 60.7267 23.1715 60.7369 23.086 60.7471C23.0677 60.7471 23.0514 60.7471 23.0331 60.7511C22.8764 60.7654 22.7197 60.7735 22.563 60.7735H22.5549C21.454 60.7735 20.3958 60.3991 19.5248 59.7011C19.5187 59.697 19.5146 59.6929 19.5085 59.6889C18.4971 58.8728 17.8642 57.7068 17.7279 56.4146C17.443 53.7426 19.3864 51.3372 22.0584 51.0564C22.2212 51.0381 22.3819 51.03 22.5427 51.03C23.666 51.0198 24.7486 51.3983 25.6339 52.1146C26.0124 52.4219 26.34 52.776 26.6066 53.1687C27.0522 53.822 27.331 54.581 27.4165 55.3889C27.5101 56.2884 27.3595 57.1797 26.981 57.9774L30.933 61.9294C31.2138 62.2102 31.3705 62.5908 31.3705 62.9876V79.06C31.3705 79.3673 31.4886 79.6624 31.7002 79.8842L32.9883 81.2334L34.9603 83.3091C35.2106 83.5716 35.6522 83.3946 35.6522 83.0324L35.6277 70.4947L35.6644 51.9559C35.6237 51.9457 35.587 51.9315 35.5463 51.9193C35.4649 51.8928 35.3856 51.8663 35.3062 51.8358C35.292 51.8317 35.2777 51.8256 35.2635 51.8216C35.1841 51.7931 35.0579 51.7402 34.9806 51.7035C34.9318 51.6791 34.8829 51.6567 34.8341 51.6303C34.7934 51.6099 34.7527 51.5875 34.712 51.5672C34.5329 51.4695 34.3599 51.3596 34.191 51.2396C34.1686 51.2233 34.1442 51.207 34.1218 51.1887C34.0689 51.148 34.016 51.1093 33.9631 51.0666C33.896 51.0096 33.8308 50.9567 33.7657 50.8977C33.7372 50.8733 33.7108 50.8468 33.6843 50.8203C33.6233 50.7634 33.5643 50.7064 33.5073 50.6453C33.493 50.6311 33.4788 50.6168 33.4645 50.6006C33.3872 50.5171 33.3099 50.4317 33.2366 50.3401C33.1878 50.279 33.1389 50.216 33.0921 50.1529C33.084 50.1407 33.0738 50.1284 33.0657 50.1142C33.0311 50.0654 32.9965 50.0165 32.9639 49.9656C32.9334 49.9168 32.9029 49.868 32.8723 49.8191C32.8642 49.8049 32.854 49.7927 32.8459 49.7784C32.3595 48.9644 32.1275 48.0304 32.1601 47.0963V47.0841C32.1621 47.023 32.1662 46.962 32.1703 46.903C32.1723 46.8765 32.1743 46.848 32.1764 46.8216C32.1805 46.7768 32.1866 46.7341 32.1906 46.6893C32.1947 46.6506 32.1988 46.614 32.2049 46.5753C32.211 46.5346 32.2191 46.4939 32.2252 46.4512C32.2313 46.4146 32.2374 46.3779 32.2435 46.3413C32.2517 46.2965 32.2619 46.2538 32.27 46.209C32.2761 46.1785 32.2842 46.146 32.2924 46.1154C32.3046 46.0666 32.3168 46.0177 32.331 45.9669C32.3371 45.9445 32.3453 45.918 32.3514 45.8936C32.3677 45.8387 32.386 45.7837 32.4043 45.7288C32.4104 45.7105 32.4145 45.6942 32.4226 45.6779C32.443 45.6148 32.4674 45.5538 32.4898 45.4927C32.4938 45.4825 32.4979 45.4744 32.502 45.4642C32.5284 45.395 32.5569 45.3299 32.5875 45.2628C32.5895 45.2587 32.5915 45.2546 32.5936 45.2506C32.6241 45.1793 32.6587 45.1081 32.6953 45.0389C32.8052 44.8232 32.9354 44.6156 33.0799 44.4142C33.0799 44.4142 33.0799 44.4142 33.082 44.4142C33.1267 44.3511 33.1735 44.29 33.2224 44.231C33.2285 44.2249 33.2346 44.2168 33.2407 44.2086C33.2814 44.1578 33.3241 44.1069 33.3689 44.058C33.3811 44.0458 33.3913 44.0316 33.4035 44.0173C33.4381 43.9787 33.4747 43.94 33.5093 43.9034C33.5317 43.879 33.5541 43.8545 33.5785 43.8322C33.6029 43.8077 33.6273 43.7833 33.6538 43.7589C33.6904 43.7243 33.7271 43.6897 33.7637 43.6551C33.7779 43.6429 33.7901 43.6307 33.8064 43.6185C33.8553 43.5757 33.9041 43.533 33.955 43.4923C33.9631 43.4862 33.9712 43.4801 33.9774 43.474C34.0343 43.4292 34.0913 43.3845 34.1503 43.3417C34.1524 43.3397 34.1564 43.3356 34.1605 43.3356C34.2216 43.2908 34.2846 43.2461 34.3477 43.2054C34.3518 43.2013 34.3579 43.1993 34.362 43.1952C34.423 43.1545 34.4841 43.1179 34.5451 43.0812C34.5573 43.0731 34.5695 43.067 34.5817 43.0589C34.6347 43.0283 34.6876 42.9978 34.7425 42.9693C34.7649 42.9571 34.7914 42.9449 34.8158 42.9327C34.8585 42.9103 34.9012 42.89 34.944 42.8696C34.9826 42.8513 35.0213 42.835 35.06 42.8167C35.0905 42.8045 35.119 42.7923 35.1475 42.7801C35.2024 42.7577 35.2574 42.7353 35.3123 42.7149C35.3266 42.7088 35.3408 42.7048 35.3571 42.7007C35.4263 42.6742 35.4975 42.6498 35.5687 42.6274C35.8719 42.5338 36.1894 42.4667 36.5109 42.4341C36.5842 42.426 36.6575 42.4199 36.7307 42.4158C36.7409 42.4158 36.7531 42.4158 36.7653 42.4138C36.8203 42.4117 36.8752 42.4097 36.9301 42.4077C36.9607 42.4077 36.9953 42.4077 37.0258 42.4077C37.0563 42.4077 37.0909 42.4077 37.1235 42.4077C37.1764 42.4077 37.2313 42.4097 37.2863 42.4138C37.2985 42.4138 37.3086 42.4138 37.3209 42.4158C37.3941 42.4199 37.4674 42.426 37.5406 42.4341C37.8642 42.4687 38.1796 42.5338 38.4828 42.6274C38.5541 42.6498 38.6253 42.6742 38.6945 42.7007C38.7087 42.7048 38.7209 42.7109 38.7372 42.7149C38.7922 42.7353 38.8471 42.7577 38.9021 42.7801C38.9326 42.7923 38.9611 42.8045 38.9896 42.8167C39.0282 42.835 39.0669 42.8513 39.1056 42.8696C39.1483 42.89 39.191 42.9103 39.2338 42.9327C39.2582 42.9449 39.2826 42.9571 39.307 42.9693C39.362 42.9978 39.4149 43.0283 39.4678 43.0589C39.48 43.065 39.4922 43.0731 39.5044 43.0812C39.5655 43.1158 39.6286 43.1545 39.6876 43.1952C39.6916 43.1972 39.6977 43.2013 39.7018 43.2054C39.7649 43.2461 39.828 43.2908 39.889 43.3356C39.8931 43.3356 39.8951 43.3397 39.8992 43.3417C39.9582 43.3845 40.0152 43.4292 40.0722 43.474C40.0803 43.4801 40.0864 43.4862 40.0946 43.4923C40.1454 43.533 40.1943 43.5757 40.2431 43.6185L40.2899 43.6592C40.3266 43.6938 40.3856 43.7487 40.4222 43.7833C40.4385 43.7996 40.4548 43.8159 40.471 43.8322C40.4934 43.8545 40.5178 43.879 40.5402 43.9034C40.5769 43.94 40.6135 43.9787 40.6481 44.0173C40.6583 44.0316 40.6705 44.0438 40.6827 44.058C40.7275 44.1069 40.7682 44.1578 40.8109 44.2086C40.817 44.2147 40.8231 44.2229 40.8292 44.231C40.878 44.2921 40.9248 44.3511 40.9696 44.4142C40.9696 44.4142 40.9696 44.4142 40.9716 44.4142C41.1161 44.6156 41.2443 44.8252 41.3563 45.0389C41.3909 45.1081 41.4255 45.1793 41.458 45.2506C41.458 45.2546 41.46 45.2587 41.4641 45.2628C41.4946 45.3299 41.5231 45.395 41.5496 45.4642C41.5537 45.4744 41.5577 45.4825 41.5618 45.4927C41.5842 45.5538 41.6086 45.6169 41.631 45.6779C41.6371 45.6942 41.6412 45.7105 41.6473 45.7288C41.6656 45.7837 41.6819 45.8387 41.7002 45.8936C41.7063 45.918 41.7144 45.9425 41.7205 45.9669C41.7348 46.0157 41.747 46.0646 41.7592 46.1154C41.7673 46.146 41.7734 46.1785 41.7816 46.209C41.7918 46.2538 41.7999 46.2965 41.808 46.3413C41.8141 46.3779 41.8223 46.4146 41.8263 46.4512C41.8345 46.4919 41.8406 46.5326 41.8467 46.5753C41.8528 46.614 41.8569 46.6506 41.8609 46.6893C41.865 46.7341 41.8711 46.7768 41.8752 46.8216C41.8772 46.848 41.8793 46.8765 41.8813 46.903C41.8854 46.964 41.8894 47.023 41.8915 47.0841V47.0963C41.9261 48.0304 41.692 48.9644 41.2057 49.7784C41.1975 49.7927 41.1894 49.8049 41.1813 49.8191C41.1507 49.868 41.1202 49.9168 41.0876 49.9656C41.0531 50.0165 41.0185 50.0654 40.9859 50.1142C40.9757 50.1284 40.9676 50.1407 40.9594 50.1529C40.9126 50.218 40.8658 50.279 40.815 50.3401C40.7417 50.4296 40.6664 50.5171 40.5891 50.6006C40.5565 50.6372 40.528 50.6596 40.4792 50.7145C40.4507 50.7451 40.4181 50.7756 40.3876 50.8041C40.353 50.8366 40.3225 50.8672 40.2879 50.8977C40.2228 50.9567 40.1576 51.0116 40.0905 51.0666C40.0376 51.1093 39.9847 51.148 39.9318 51.1887C39.9094 51.207 39.885 51.2233 39.8626 51.2396C39.6957 51.3596 39.5207 51.4695 39.3416 51.5672C39.3009 51.5875 39.2623 51.6099 39.2215 51.6303C39.1727 51.6567 39.1218 51.6791 39.073 51.7035C38.9814 51.7483 38.8878 51.787 38.7901 51.8216C38.7759 51.8256 38.7637 51.8317 38.7494 51.8358C38.6701 51.8663 38.5907 51.8928 38.5093 51.9193C38.4686 51.9315 38.432 51.9457 38.3913 51.9559L38.4279 70.4947L38.4035 83.0324C38.4035 83.3946 38.8451 83.5716 39.0954 83.3091L42.329 79.9107C42.5386 79.6909 42.6566 79.3979 42.6587 79.0926L42.6851 73.6246V62.9876C42.6851 62.5908 42.8438 62.2102 43.1226 61.9294L47.0746 57.9774C46.6961 57.1797 46.5435 56.2884 46.6371 55.3889C46.7226 54.581 47.0034 53.822 47.4491 53.1687C47.7156 52.776 48.0412 52.4219 48.4198 52.1146C49.305 51.3983 50.3876 51.0218 51.5109 51.03C51.6717 51.03 51.8345 51.0401 51.9952 51.0564C54.6672 51.3393 56.6106 53.7446 56.3257 56.4146C56.1894 57.7068 55.5545 58.8728 54.5431 59.6889C54.537 59.6929 54.5329 59.697 54.5268 59.7011C53.6558 60.3971 52.5976 60.7715 51.4967 60.7735H51.4906C51.3339 60.7735 51.1772 60.7634 51.0205 60.7511C51.0042 60.7491 50.9859 60.7491 50.9676 60.7471C50.8821 60.7369 50.7987 60.7267 50.7152 60.7125C50.6725 60.7064 50.6318 60.6982 50.5891 60.6901C50.5484 60.684 50.5077 60.6759 50.467 60.6677C50.4181 60.6575 50.3733 60.6474 50.3265 60.6352C50.292 60.627 50.2574 60.6189 50.2228 60.6087C50.1678 60.5945 50.1108 60.5782 50.0559 60.5619C50.0274 60.5538 49.9989 60.5436 49.9684 60.5354C49.9236 60.5192 49.8768 60.5049 49.832 60.4886C49.8036 60.4764 49.773 60.4662 49.7445 60.4561C49.6977 60.4378 49.6509 60.4215 49.6041 60.4011C49.5736 60.3869 49.539 60.3747 49.5085 60.3604C49.4637 60.3401 49.421 60.3218 49.3782 60.3014C49.3396 60.2831 49.3029 60.2628 49.2643 60.2444C49.2297 60.2261 49.1931 60.2098 49.1585 60.1895C49.0872 60.1508 49.018 60.1122 48.9488 60.0694C48.9468 60.0674 48.9427 60.0654 48.9407 60.0633L46.0551 62.9489L45.6867 63.3173C45.5524 63.4496 45.4771 63.6307 45.4771 63.8199V75.5008C45.4771 75.8977 45.9615 76.091 46.2342 75.804L69.2846 51.5835C70.2472 50.57 69.8544 48.9013 68.5398 48.4272L63.4849 46.6038C62.7726 46.3474 62.5203 45.4683 62.9883 44.872L73.5805 31.3902L73.5846 31.3841Z" fill="url(#paint0_linear_8836_2568)"/>
<path d="M59.0744 10.6739C56.6629 9.59331 51.9661 8.96246 50.159 8.75082L50.1346 8.67145H50.1468L49.6584 7.10247L48.299 2.72518C47.9958 1.74635 47.1838 1.00968 46.1826 0.798038C45.5864 0.671868 44.986 0.561978 44.3898 0.470403H44.3837C42.601 0.191608 40.8265 0.055263 39.1314 0.016598C34.6605 -0.0871869 30.7065 0.468368 28.5595 0.850948C27.5217 1.03613 26.6751 1.78501 26.3638 2.79234L24.6625 8.26445C15.1509 9.27381 8.63281 11.3353 8.63281 13.7142C8.63281 17.0882 21.7423 21.6975 37.9104 21.6975C44.7459 21.6975 50.4582 20.7553 54.5078 19.7317C55.3259 19.5241 55.1305 18.3112 54.288 18.3682C40.5152 19.2799 27.8737 18.588 22.9246 17.0007C22.9063 16.9946 22.89 16.9905 22.8737 16.9844C17.6458 15.3625 17.3833 13.6837 17.4729 13.1016C17.479 13.0386 17.4932 12.9816 17.5176 12.9287C17.5176 12.9205 17.5237 12.9144 17.5278 12.9063C17.5298 12.9002 17.5319 12.8961 17.5339 12.8941C17.5339 12.8941 17.5339 12.89 17.5359 12.888C17.886 12.2022 19.6361 12.1472 21.7077 12.3467C22.4708 12.4199 23.2767 12.5298 24.0744 12.656C24.4814 12.7211 24.8843 12.7883 25.2771 12.8595C25.2954 12.8615 25.3178 12.8656 25.3361 12.8697C25.3361 12.8697 25.3381 12.8697 25.3402 12.8697C30.8815 13.7793 42.0577 15.214 49.9169 14.2209C54.4447 13.706 57.5013 12.6641 59.0621 12.015C59.6564 11.7667 59.6645 10.9323 59.0764 10.6698L59.0744 10.6739Z" fill="url(#paint1_linear_8836_2568)"/>
</g>
<defs>
<linearGradient id="paint0_linear_8836_2568" x1="68.7514" y1="8.45165" x2="9.09134" y2="66.3026" gradientUnits="userSpaceOnUse">
<stop stop-color="#00FFAD"/>
<stop offset="1" stop-color="#32A7EF"/>
</linearGradient>
<linearGradient id="paint1_linear_8836_2568" x1="55.8163" y1="-7.04689" x2="-7.00209" y2="53.8668" gradientUnits="userSpaceOnUse">
<stop stop-color="#00FFAD"/>
<stop offset="1" stop-color="#32A7EF"/>
</linearGradient>
<clipPath id="clip0_8836_2568">
<rect width="407" height="83.4289" fill="white"/>
</clipPath>
</defs>
</svg>
