<?xml version="1.0" encoding="UTF-8"?>
<svg id="_Слой_1" data-name="Слой 1" xmlns="http://www.w3.org/2000/svg" xmlns:xlink="http://www.w3.org/1999/xlink" viewBox="0 0 2000 409.97">
  <defs>
    <style>
      .cls-1 {
        fill: url(#_Безымянный_градиент_136);
      }

      .cls-1, .cls-2, .cls-3 {
        stroke-width: 0px;
      }

      .cls-2 {
        fill: #fff;
      }

      .cls-3 {
        fill: url(#_Безымянный_градиент_136-2);
      }
    </style>
    <linearGradient id="_Безымянный_градиент_136" data-name="Безымянный градиент 136" x1="337.85" y1="41.53" x2="44.68" y2="325.81" gradientUnits="userSpaceOnUse">
      <stop offset="0" stop-color="#00ffad"/>
      <stop offset="1" stop-color="#32a7ef"/>
    </linearGradient>
    <linearGradient id="_Безымянный_градиент_136-2" data-name="Безымянный градиент 136" x1="274.27" y1="-34.64" x2="-34.42" y2="264.69" xlink:href="#_Безымянный_градиент_136"/>
  </defs>
  <g>
    <path class="cls-2" d="m476.68,280.02v-117.57h-58.78v-32.52h150.08v32.52h-58.78v117.57h-32.52Z"/>
    <path class="cls-2" d="m583.61,280.02v-149.87h119.02c5.7,0,10.87,1.39,15.53,4.17,4.65,2.78,8.41,6.53,11.26,11.26,2.85,4.73,4.27,9.87,4.27,15.42v38.77c0,5.56-1.43,10.7-4.27,15.43-2.85,4.73-6.6,8.48-11.26,11.26-4.66,2.78-9.83,4.17-15.53,4.17l-86.71.21v49.19h-32.31Zm117.36-81.92v-35.65h-85.05v35.65h85.05Zm-.83,81.92l-43.57-51.9h42.31l34.6,40.86v11.05h-33.35Z"/>
    <path class="cls-2" d="m756,280.02v-150.08h138.62v32.52h-105.89v26.27h85.25v32.52h-85.25v26.26h105.89v32.52h-138.62Z"/>
    <path class="cls-2" d="m915.25,280.02v-150.08h33.35l84,100.05v-100.05h32.73v150.08h-33.35l-84.42-100.47v100.47h-32.31Z"/>
    <path class="cls-2" d="m1119.52,280.02c-5.7,0-10.88-1.39-15.53-4.17-4.66-2.78-8.37-6.5-11.15-11.15-2.78-4.65-4.17-9.83-4.17-15.53v-88.38c0-5.7,1.39-10.87,4.17-15.53,2.78-4.65,6.49-8.37,11.15-11.15,4.65-2.78,9.83-4.17,15.53-4.17h118.82v32.52h-110.48c-2.22,0-3.93.56-5.11,1.67-1.18,1.11-1.77,2.85-1.77,5.21v71.29c0,2.23.59,3.93,1.77,5.11,1.18,1.18,2.88,1.77,5.11,1.77h110.48v32.52h-118.82Z"/>
    <path class="cls-2" d="m1260.22,280.02v-150.08h32.31v58.78h88.59v-58.78h32.31v150.08h-32.31v-58.78h-88.59v58.78h-32.31Z"/>
    <path class="cls-2" d="m1534.96,280.02c-5.56,0-10.7-1.39-15.42-4.17-4.73-2.78-8.48-6.53-11.26-11.26-2.78-4.72-4.17-9.87-4.17-15.43v-13.97h32.31v12.3h85.05v-26.26h-86.51c-5.56,0-10.7-1.39-15.42-4.17-4.73-2.78-8.48-6.49-11.26-11.15-2.78-4.65-4.17-9.83-4.17-15.53v-29.6c0-5.7,1.39-10.87,4.17-15.53,2.78-4.65,6.53-8.37,11.26-11.15,4.72-2.78,9.87-4.17,15.42-4.17h88.38c5.56,0,10.66,1.39,15.32,4.17,4.65,2.78,8.41,6.5,11.26,11.15,2.85,4.66,4.27,9.83,4.27,15.53v13.97h-32.73v-12.3h-85.05v26.27h86.92c5.56,0,10.66,1.39,15.32,4.17,4.65,2.78,8.41,6.5,11.26,11.15,2.85,4.66,4.27,9.83,4.27,15.53v29.6c0,5.56-1.43,10.7-4.27,15.43-2.85,4.73-6.6,8.48-11.26,11.26-4.66,2.78-9.76,4.17-15.32,4.17h-88.38Z"/>
    <path class="cls-2" d="m1677.12,280.02v-149.87h119.02c5.7,0,10.87,1.39,15.53,4.17,4.65,2.78,8.41,6.53,11.26,11.26,2.85,4.73,4.27,9.87,4.27,15.42v38.77c0,5.56-1.43,10.7-4.27,15.43-2.85,4.73-6.6,8.48-11.26,11.26-4.66,2.78-9.83,4.17-15.53,4.17l-86.71.21v49.19h-32.31Zm117.36-81.92v-35.65h-85.05v35.65h85.05Z"/>
    <path class="cls-2" d="m1897.86,280.02v-56.07l-69.41-94.01h38.56l47.11,59.2,46.9-59.2h38.98l-69.62,94.22v55.86h-32.52Z"/>
  </g>
  <g>
    <g>
      <g>
        <path class="cls-2" d="m165.76,132.87l-42.83-5.42c-1.67-.21-2.66,1.83-1.46,3,21.19,20.65,38.48,11.05,45.19,5.68,1.27-1.02.71-3.05-.91-3.26Z"/>
        <path class="cls-2" d="m243.38,127.44l-42.83,5.42c-1.61.2-2.17,2.24-.91,3.26,6.71,5.37,24,14.97,45.19-5.68,1.21-1.18.21-3.21-1.46-3Z"/>
      </g>
      <g>
        <path class="cls-2" d="m186.11,241.62c.24-.11.48-.22.72-.35.12-.07.24-.14.36-.21.16-.09.31-.18.47-.28.16-.11.32-.23.48-.35.09-.07.19-.13.28-.2.01-.01.03-.03.04-.04.17-.14.33-.29.49-.44.09-.09.19-.17.28-.26.12-.12.24-.26.35-.39.11-.12.23-.24.33-.37,0-.01.02-.02.03-.03.11-.14.21-.29.32-.43.08-.11.17-.22.24-.33.18-.27.34-.54.49-.82,0,0,0,0,0-.01.61-1.13.98-2.36,1.13-3.63,0-.04.01-.09.02-.13.02-.21.03-.41.04-.62,0-.14.02-.27.02-.41,0-.14,0-.28-.02-.41,0-.2-.01-.41-.03-.61,0-.02,0-.05,0-.07,0-.09-.03-.17-.04-.26-.03-.22-.06-.44-.1-.66-.02-.12-.05-.23-.08-.35-.05-.2-.1-.41-.16-.61-.04-.13-.09-.27-.14-.4-.06-.18-.12-.35-.19-.52-.06-.16-.14-.31-.21-.46-.07-.14-.13-.29-.21-.43-.09-.18-.2-.34-.3-.51-.07-.11-.13-.23-.21-.34-.12-.19-.26-.37-.4-.55-.06-.08-.11-.16-.17-.23-.01-.02-.03-.03-.04-.04-.11-.13-.22-.25-.34-.38-.12-.13-.24-.27-.37-.4-.06-.06-.12-.11-.18-.17-.19-.18-.39-.36-.59-.53,0,0,0,0-.01-.01-.04-.03-.08-.05-.11-.08-.41-.33-.85-.62-1.31-.88,0,0-.02,0-.02-.01-.15-.08-.3-.15-.45-.23-.14-.07-.27-.14-.41-.2-.12-.05-.24-.1-.36-.14-.19-.07-.38-.14-.57-.21-.09-.03-.18-.06-.27-.08-.23-.07-.47-.13-.71-.18-.07-.01-.13-.03-.2-.04-.28-.05-.55-.1-.83-.13-.03,0-.06-.01-.09-.01-.01,0-.02,0-.03,0-.34-.03-.68-.06-1.03-.06,0,0,0,0-.01,0s0,0-.01,0c-.35,0-.69.02-1.03.06-.01,0-.02,0-.03,0-.03,0-.06,0-.09.01-.28.03-.56.07-.83.13-.07.01-.13.03-.2.04-.24.05-.47.11-.71.18-.09.03-.18.05-.27.08-.19.06-.38.13-.57.21-.12.05-.24.09-.36.14-.14.06-.27.13-.41.2-.15.07-.31.15-.45.23,0,0-.02,0-.02.01-.46.26-.89.55-1.31.88-.04.03-.08.05-.11.08,0,0,0,0-.01.01-.2.17-.4.34-.59.53-.06.06-.12.11-.18.17-.13.13-.25.26-.37.4-.11.12-.23.25-.34.38-.01.02-.03.03-.04.04-.06.08-.11.16-.17.23-.14.18-.27.36-.4.55-.07.11-.14.23-.21.34-.1.17-.21.34-.3.51-.08.14-.14.29-.21.43-.07.15-.15.3-.21.46-.07.17-.13.35-.19.52-.05.13-.1.26-.14.4-.06.2-.11.41-.16.61-.03.12-.06.23-.08.35-.04.22-.07.44-.1.66-.01.09-.03.17-.04.26,0,.02,0,.05,0,.07-.02.2-.03.41-.03.61,0,.14-.02.28-.02.41,0,.14.01.27.02.41,0,.21.02.42.04.62,0,.04.01.09.02.13.14,1.27.52,2.5,1.13,3.63,0,0,0,0,0,.01.15.28.31.55.49.82.08.11.16.22.24.33.1.14.2.29.32.43,0,.01.02.02.03.03.1.13.22.25.33.37.12.13.23.27.35.39.09.09.19.17.28.26.16.15.32.3.49.44.01.01.03.03.04.04.09.07.19.13.28.2.16.12.31.24.48.35.15.1.31.19.47.28.12.07.24.15.36.21.23.13.47.24.72.35.05.02.1.05.14.07,1.15.49,2.39.75,3.65.78.1,0,.2.01.31.01.1,0,.2,0,.31-.01,1.27-.03,2.5-.3,3.65-.78.05-.02.1-.05.14-.07Z"/>
        <path class="cls-2" d="m247.95,283.5c.07.04.14.09.22.13.17.09.35.17.52.25,1.02.48,2.12.8,3.27.93.34.04.69.05,1.03.06.02,0,.03,0,.05,0,.31,0,.62-.02.92-.04.02,0,.05,0,.07,0,.29-.03.58-.07.86-.12.08-.01.15-.03.23-.05.23-.05.46-.1.69-.17.09-.02.17-.05.26-.08.22-.07.43-.14.64-.23.09-.03.17-.07.26-.1.21-.09.42-.19.63-.29.08-.04.16-.08.23-.12.22-.12.43-.24.64-.38.06-.04.12-.07.18-.11.27-.18.53-.37.78-.57,1.85-1.5,3.1-3.55,3.57-5.85.07-.33.12-.66.16-1,.56-5.23-2.98-9.98-8.02-11.04-.34-.07-.68-.12-1.03-.16-.37-.04-.74-.06-1.1-.06-1.16,0-2.3.2-3.37.58-1.08.38-2.09.95-3,1.69-2.12,1.71-3.44,4.14-3.72,6.84-.29,2.71.49,5.36,2.2,7.48.8.99,1.76,1.8,2.84,2.42Z"/>
        <path class="cls-2" d="m117.37,266.77c-1.14-.93-2.44-1.58-3.82-1.94-.83-.22-1.69-.33-2.55-.33-.36,0-.73.02-1.1.06-.35.04-.69.09-1.03.16-5.04,1.06-8.58,5.81-8.02,11.04.04.34.09.67.16,1,.47,2.3,1.72,4.35,3.57,5.85.25.2.51.39.78.57.06.04.12.08.18.11.21.13.42.26.64.38.08.04.16.08.23.12.21.1.41.2.63.29.08.04.17.07.26.1.21.08.43.16.64.23.09.03.17.05.26.08.23.06.46.12.69.17.08.02.15.03.23.05.28.05.57.09.86.12.02,0,.05,0,.07,0,.31.03.61.04.92.04.02,0,.03,0,.05,0,.34,0,.69-.02,1.03-.06,1.15-.13,2.26-.45,3.28-.93.17-.08.35-.16.52-.25.07-.04.14-.09.21-.13,1.08-.62,2.04-1.43,2.85-2.43,1.71-2.11,2.5-4.77,2.2-7.48-.28-2.7-1.6-5.13-3.72-6.84Z"/>
      </g>
    </g>
    <path class="cls-1" d="m361.6,154.22c5.02-6.38,1.8-15.82-6.07-17.81l-18.77-4.76-37.54-9.37c-6.09-1.52-12.41,1.41-15.19,7.04l-5.55,11.25-23.87,48.44c-1.4,2.83-5.69,1.38-5.08-1.72l6.01-30.68c.4-2.06-1.56-3.79-3.56-3.13-18.71,6.16-41.71,7.69-66.93-3.77-1.92-.87-4.12-.87-6.04,0-24.14,10.96-46.35,10.03-64.6,4.54-1.98-.6-3.89,1.12-3.49,3.15l5.85,29.89c.61,3.1-3.69,4.55-5.08,1.72l-22.8-46.26-6.75-13.69c-2.77-5.62-9.08-8.55-15.16-7.05l-1.76.44h.02l-1.37.34h0l-44.48,11.01-10.85,2.69c-7.91,1.96-11.16,11.42-6.13,17.83l51.98,66.17c2.3,2.93,1.06,7.25-2.44,8.51l-24.84,8.96c-6.46,2.33-8.4,10.53-3.66,15.51l113.27,119.02c1.34,1.41,3.72.46,3.72-1.49v-57.4c0-.93-.37-1.82-1.03-2.47l-1.81-1.81-14.18-14.18s-.03.01-.04.03c-.34.2-.68.4-1.02.59-.17.09-.36.18-.53.27-.19.09-.37.19-.55.28-.22.1-.43.19-.65.29-.15.07-.32.13-.47.2-.26.11-.52.21-.77.31-.14.05-.28.1-.42.15l-.68.23c-.15.05-.3.1-.46.14-.24.07-.47.13-.71.2-.17.05-.34.09-.51.13-.23.06-.46.11-.69.16-.2.04-.4.08-.61.11-.2.04-.41.08-.62.11-.41.07-.82.12-1.24.17-.09,0-.17,0-.26.02-.77.07-1.54.11-2.31.11h-.04c-5.41,0-10.61-1.84-14.89-5.27-.03-.02-.05-.04-.08-.06-4.97-4.01-8.08-9.74-8.75-16.09-1.4-13.13,8.15-24.95,21.28-26.33.8-.09,1.59-.13,2.38-.13,5.52-.05,10.84,1.81,15.19,5.33,1.86,1.51,3.47,3.25,4.78,5.18,2.19,3.21,3.56,6.94,3.98,10.91.46,4.42-.28,8.8-2.14,12.72l19.42,19.42c1.38,1.38,2.15,3.25,2.15,5.2v78.98c0,1.51.58,2.96,1.62,4.05l6.33,6.63,9.69,10.2c1.23,1.29,3.4.42,3.4-1.36l-.12-61.61.18-91.1c-.2-.05-.38-.12-.58-.18-.4-.13-.79-.26-1.18-.41-.07-.02-.14-.05-.21-.07-.39-.14-1.01-.4-1.39-.58-.24-.12-.48-.23-.72-.36-.2-.1-.4-.21-.6-.31-.88-.48-1.73-1.02-2.56-1.61-.11-.08-.23-.16-.34-.25-.26-.2-.52-.39-.78-.6h0c-.33-.28-.65-.54-.97-.83-.14-.12-.27-.25-.4-.38-.3-.28-.59-.56-.87-.86-.07-.07-.14-.14-.21-.22-.38-.41-.76-.83-1.12-1.28-.24-.3-.48-.61-.71-.92-.04-.06-.09-.12-.13-.19-.17-.24-.34-.48-.5-.73-.15-.24-.3-.48-.45-.72-.04-.07-.09-.13-.13-.2-2.39-4-3.53-8.59-3.37-13.18v-.06c.01-.3.03-.6.05-.89.01-.13.02-.27.03-.4.02-.22.05-.43.07-.65.02-.19.04-.37.07-.56.03-.2.07-.4.1-.61.03-.18.06-.36.09-.54.04-.22.09-.43.13-.65.03-.15.07-.31.11-.46.06-.24.12-.48.19-.73.03-.11.07-.24.1-.36.08-.27.17-.54.26-.81.03-.09.05-.17.09-.25.1-.31.22-.61.33-.91.02-.05.04-.09.06-.14.13-.34.27-.66.42-.99.01-.02.02-.04.03-.06.15-.35.32-.7.5-1.04.54-1.06,1.18-2.08,1.89-3.07,0,0,0,0,.01,0,.22-.31.45-.61.69-.9.03-.03.06-.07.09-.11.2-.25.41-.5.63-.74.06-.06.11-.13.17-.2.17-.19.35-.38.52-.56.11-.12.22-.24.34-.35.12-.12.24-.24.37-.36.18-.17.36-.34.54-.51.07-.06.13-.12.21-.18.24-.21.48-.42.73-.62.04-.03.08-.06.11-.09.28-.22.56-.44.85-.65.01-.01.03-.03.05-.03.3-.22.61-.44.92-.64.02-.02.05-.03.07-.05.3-.2.6-.38.9-.56.06-.04.12-.07.18-.11.26-.15.52-.3.79-.44.11-.06.24-.12.36-.18.21-.11.42-.21.63-.31.19-.09.38-.17.57-.26.15-.06.29-.12.43-.18.27-.11.54-.22.81-.32.07-.03.14-.05.22-.07.34-.13.69-.25,1.04-.36h0c1.49-.46,3.05-.79,4.63-.95.36-.04.72-.07,1.08-.09.05,0,.11,0,.17-.01.27-.01.54-.02.81-.03.15,0,.32,0,.47,0s.32,0,.48,0c.26,0,.53.01.8.03.06,0,.11,0,.17.01.36.02.72.05,1.08.09,1.59.17,3.14.49,4.63.95h0c.35.11.7.23,1.04.36.07.02.13.05.21.07.27.1.54.21.81.32.15.06.29.12.43.18.19.09.38.17.57.26.21.1.42.2.63.31.12.06.24.12.36.18.27.14.53.29.79.44.06.03.12.07.18.11.3.17.61.36.9.56.02.01.05.03.07.05.31.2.62.42.92.64.02,0,.03.02.05.03.29.21.57.43.85.65.04.03.07.06.11.09.25.2.49.41.73.62l.23.2c.18.17.47.44.65.61.08.08.16.16.24.24.11.11.23.23.34.35.18.18.36.37.53.56.05.07.11.13.17.2.22.24.42.49.63.74.03.03.06.07.09.11.24.3.47.59.69.9,0,0,0,0,.01,0,.71.99,1.34,2.02,1.89,3.07h0c.17.34.34.69.5,1.04,0,.02.01.04.03.06.15.33.29.65.42.99.02.05.04.09.06.14.11.3.23.61.34.91.03.08.05.16.08.25.09.27.17.54.26.81.03.12.07.24.1.36.07.24.13.48.19.73.04.15.07.31.11.46.05.22.09.43.13.65.03.18.07.36.09.54.04.2.07.4.1.61.03.19.05.37.07.56.02.22.05.43.07.65.01.13.02.27.03.4.02.3.04.59.05.89v.06c.17,4.59-.98,9.18-3.37,13.18-.04.07-.08.13-.12.2-.15.24-.3.48-.46.72-.17.25-.34.49-.5.73-.05.07-.09.13-.13.19-.23.32-.46.62-.71.92-.36.44-.73.87-1.11,1.28-.16.18-.3.29-.54.56-.14.15-.3.3-.45.44-.17.16-.32.31-.49.46-.32.29-.64.56-.97.83,0,0,0,0,0,0-.26.21-.52.4-.78.6-.11.09-.23.17-.34.25-.82.59-1.68,1.13-2.56,1.61-.2.1-.39.21-.59.31-.24.13-.49.24-.73.36-.45.22-.91.41-1.39.58-.07.02-.13.05-.2.07-.39.15-.78.28-1.18.41-.2.06-.38.13-.58.18l.18,91.1-.12,61.61c0,1.78,2.17,2.65,3.4,1.36l15.89-16.7c1.03-1.08,1.61-2.52,1.62-4.02l.13-26.87v-52.27c0-1.95.78-3.82,2.15-5.2l19.42-19.42c-1.86-3.92-2.61-8.3-2.15-12.72.42-3.97,1.8-7.7,3.99-10.91,1.31-1.93,2.91-3.67,4.77-5.18,4.35-3.52,9.67-5.37,15.19-5.33.79,0,1.59.05,2.38.13,13.13,1.39,22.68,13.21,21.28,26.33-.67,6.35-3.79,12.08-8.76,16.09-.03.02-.05.04-.08.06-4.28,3.42-9.48,5.26-14.89,5.27h-.03c-.77,0-1.54-.05-2.31-.11-.08-.01-.17-.01-.26-.02-.42-.05-.83-.1-1.24-.17-.21-.03-.41-.07-.62-.11-.2-.03-.4-.07-.6-.11-.24-.05-.46-.1-.69-.16-.17-.04-.34-.08-.51-.13-.27-.07-.55-.15-.82-.23-.14-.04-.28-.09-.43-.13-.22-.08-.45-.15-.67-.23-.14-.06-.29-.11-.43-.16-.23-.09-.46-.17-.69-.27-.15-.07-.32-.13-.47-.2-.22-.1-.43-.19-.64-.29-.19-.09-.37-.19-.56-.28-.17-.09-.35-.17-.52-.27-.35-.19-.69-.38-1.03-.59-.01-.01-.03-.02-.04-.03l-14.18,14.18-1.81,1.81c-.66.65-1.03,1.54-1.03,2.47v57.4c0,1.95,2.38,2.9,3.72,1.49l113.27-119.02c4.73-4.98,2.8-13.18-3.66-15.51l-24.84-8.96c-3.5-1.26-4.74-5.58-2.44-8.51l52.05-66.25Z"/>
    <path class="cls-3" d="m290.28,52.44c-11.85-5.31-34.93-8.41-43.81-9.45l-.12-.39h.06l-2.4-7.71-6.68-21.51c-1.49-4.81-5.48-8.43-10.4-9.47-2.93-.62-5.88-1.16-8.81-1.61h-.03c-8.76-1.37-17.48-2.04-25.81-2.23-21.97-.51-41.4,2.22-51.95,4.1-5.1.91-9.26,4.59-10.79,9.54l-8.36,26.89c-46.74,4.96-78.77,15.09-78.77,26.78,0,16.58,64.42,39.23,143.87,39.23,33.59,0,61.66-4.63,81.56-9.66,4.02-1.02,3.06-6.98-1.08-6.7-67.68,4.48-129.8,1.08-154.12-6.72-.09-.03-.17-.05-.25-.08-25.69-7.97-26.98-16.22-26.54-19.08h0c.03-.31.1-.59.22-.85,0-.04.03-.07.05-.11.01-.03.02-.05.03-.06,0,0,0-.02.01-.03,1.72-3.37,10.32-3.64,20.5-2.66,3.75.36,7.71.9,11.63,1.52,2,.32,3.98.65,5.91,1,.09.01.2.03.29.05,0,0,.01,0,.02,0,27.23,4.47,82.15,11.52,120.77,6.64h0c22.25-2.53,37.27-7.65,44.94-10.84,2.92-1.22,2.96-5.32.07-6.61Z"/>
  </g>
</svg>