<svg width="350" height="350" viewBox="0 0 350 350" fill="none" xmlns="http://www.w3.org/2000/svg">
<g clip-path="url(#clip0_7623_74)">
<path d="M0 0H350V350H0V0Z" fill="black"/>
<path d="M86.0425 150.278V190.16H78.8284L61.6417 165.058H61.3514V190.16H53V150.278H60.3296L77.3805 175.361H77.7284V150.278H86.0425ZM106.174 190.745C103.178 190.745 100.588 190.102 98.4017 188.817C96.2289 187.518 94.5501 185.713 93.367 183.403C92.1839 181.079 91.5932 178.385 91.5932 175.321C91.5932 172.232 92.1839 169.531 93.367 167.221C94.5501 164.897 96.2289 163.092 98.4017 161.807C100.588 160.508 103.178 159.859 106.174 159.859C109.172 159.859 111.755 160.508 113.93 161.807C116.115 163.092 117.8 164.897 118.983 167.221C120.166 169.531 120.757 172.232 120.757 175.321C120.757 178.385 120.166 181.079 118.983 183.403C117.8 185.713 116.115 187.518 113.93 188.817C111.755 190.102 109.172 190.745 106.174 190.745ZM106.213 184.318C107.576 184.318 108.715 183.929 109.629 183.149C110.54 182.358 111.229 181.28 111.691 179.917C112.168 178.553 112.406 177.002 112.406 175.263C112.406 173.524 112.168 171.971 111.691 170.609C111.229 169.245 110.54 168.168 109.629 167.377C108.715 166.583 107.576 166.187 106.213 166.187C104.838 166.187 103.681 166.583 102.742 167.377C101.815 168.168 101.114 169.245 100.639 170.609C100.175 171.971 99.9446 173.524 99.9446 175.263C99.9446 177.002 100.175 178.553 100.639 179.917C101.114 181.28 101.815 182.358 102.742 183.149C103.681 183.929 104.838 184.318 106.213 184.318ZM138.672 190.16V160.248H146.889V190.16H138.672ZM142.8 156.392C141.578 156.392 140.531 155.984 139.656 155.167C138.794 154.336 138.363 153.342 138.363 152.187C138.363 151.044 138.794 150.063 139.656 149.246C140.531 148.415 141.578 148 142.8 148C144.022 148 145.063 148.415 145.925 149.246C146.799 150.063 147.237 151.044 147.237 152.187C147.237 153.342 146.799 154.336 145.925 155.167C145.063 155.984 144.022 156.392 142.8 156.392ZM153.472 190.16V160.248H161.304V165.526H161.65C162.268 163.773 163.297 162.39 164.736 161.379C166.177 160.366 167.9 159.859 169.907 159.859C171.939 159.859 173.668 160.371 175.096 161.398C176.523 162.41 177.474 163.786 177.951 165.526H178.258C178.862 163.812 179.956 162.443 181.538 161.416C183.133 160.378 185.016 159.859 187.19 159.859C189.954 159.859 192.198 160.748 193.922 162.527C195.657 164.292 196.526 166.797 196.526 170.043V190.16H188.327V171.68C188.327 170.017 187.891 168.772 187.015 167.94C186.141 167.109 185.048 166.695 183.738 166.695C182.245 166.695 181.081 167.174 180.246 168.136C179.409 169.083 178.991 170.336 178.991 171.894V190.16H171.025V171.505C171.025 170.038 170.608 168.869 169.771 167.999C168.948 167.13 167.861 166.695 166.512 166.695C165.599 166.695 164.775 166.928 164.042 167.396C163.322 167.85 162.75 168.492 162.326 169.323C161.902 170.141 161.689 171.102 161.689 172.206V190.16H153.472ZM211.465 190.726C209.574 190.726 207.891 190.393 206.412 189.732C204.932 189.057 203.762 188.064 202.9 186.752C202.051 185.429 201.627 183.78 201.627 181.806C201.627 180.144 201.929 178.749 202.533 177.619C203.139 176.49 203.961 175.58 205.003 174.893C206.045 174.204 207.229 173.685 208.553 173.335C209.89 172.984 211.292 172.737 212.757 172.595C214.48 172.413 215.87 172.244 216.924 172.089C217.978 171.92 218.744 171.673 219.219 171.349C219.695 171.023 219.932 170.544 219.932 169.908V169.791C219.932 168.557 219.547 167.603 218.776 166.928C218.017 166.252 216.936 165.915 215.536 165.915C214.056 165.915 212.879 166.246 212.005 166.909C211.131 167.558 210.552 168.376 210.269 169.363L202.669 168.739C203.054 166.921 203.813 165.351 204.945 164.026C206.078 162.69 207.536 161.663 209.323 160.95C211.124 160.222 213.207 159.859 215.573 159.859C217.22 159.859 218.795 160.054 220.299 160.443C221.816 160.832 223.161 161.437 224.33 162.254C225.513 163.072 226.447 164.124 227.128 165.409C227.81 166.681 228.15 168.206 228.15 169.985V190.16H220.357V186.013H220.126C219.65 186.947 219.014 187.771 218.216 188.486C217.418 189.187 216.461 189.739 215.342 190.141C214.224 190.53 212.93 190.726 211.465 190.726ZM213.818 185C215.027 185 216.094 184.759 217.021 184.279C217.946 183.785 218.673 183.124 219.201 182.293C219.727 181.461 219.992 180.521 219.992 179.468V176.295C219.734 176.464 219.381 176.619 218.931 176.763C218.493 176.893 217.997 177.016 217.445 177.133C216.892 177.236 216.339 177.333 215.785 177.424C215.234 177.503 214.731 177.573 214.281 177.638C213.317 177.782 212.475 178.008 211.754 178.32C211.034 178.632 210.476 179.054 210.077 179.587C209.678 180.106 209.478 180.754 209.478 181.533C209.478 182.663 209.883 183.526 210.693 184.123C211.516 184.707 212.559 185 213.818 185ZM247.874 202C245.212 202 242.929 201.63 241.026 200.89C239.135 200.163 237.632 199.171 236.513 197.911C235.393 196.652 234.666 195.236 234.332 193.665L241.933 192.633C242.164 193.231 242.53 193.788 243.031 194.307C243.534 194.827 244.196 195.243 245.019 195.555C245.854 195.879 246.871 196.042 248.066 196.042C249.853 196.042 251.327 195.599 252.484 194.717C253.654 193.848 254.239 192.386 254.239 190.335V184.863H253.891C253.532 185.694 252.992 186.479 252.272 187.219C251.551 187.96 250.625 188.563 249.493 189.031C248.363 189.499 247.012 189.732 245.443 189.732C243.218 189.732 241.193 189.212 239.366 188.174C237.553 187.122 236.107 185.519 235.028 183.364C233.96 181.196 233.425 178.456 233.425 175.147C233.425 171.757 233.972 168.928 235.065 166.655C236.158 164.383 237.611 162.683 239.424 161.554C241.25 160.424 243.25 159.859 245.424 159.859C247.083 159.859 248.471 160.145 249.59 160.716C250.709 161.274 251.608 161.975 252.291 162.818C252.985 163.649 253.518 164.469 253.891 165.272H254.2V160.248H262.36V190.451C262.36 192.996 261.742 195.126 260.508 196.84C259.274 198.554 257.563 199.839 255.377 200.696C253.204 201.565 250.702 202 247.874 202ZM248.047 183.501C249.371 183.501 250.49 183.168 251.403 182.507C252.33 181.832 253.036 180.872 253.525 179.624C254.027 178.365 254.277 176.86 254.277 175.107C254.277 173.354 254.032 171.836 253.545 170.55C253.056 169.251 252.348 168.246 251.423 167.531C250.496 166.818 249.371 166.46 248.047 166.46C246.698 166.46 245.559 166.83 244.633 167.57C243.707 168.297 243.006 169.31 242.53 170.609C242.055 171.906 241.817 173.405 241.817 175.107C241.817 176.833 242.055 178.327 242.53 179.587C243.019 180.833 243.72 181.799 244.633 182.488C245.559 183.163 246.698 183.501 248.047 183.501ZM282.402 190.745C279.353 190.745 276.731 190.121 274.531 188.875C272.344 187.615 270.66 185.837 269.477 183.538C268.294 181.228 267.704 178.495 267.704 175.34C267.704 172.264 268.294 169.563 269.477 167.24C270.66 164.916 272.326 163.104 274.473 161.807C276.634 160.508 279.166 159.859 282.072 159.859C284.028 159.859 285.848 160.177 287.531 160.813C289.229 161.437 290.709 162.378 291.969 163.637C293.242 164.897 294.231 166.48 294.939 168.388C295.647 170.285 296 172.504 296 175.049V177.326H270.981V172.185H288.265C288.265 170.991 288.008 169.933 287.494 169.012C286.98 168.09 286.265 167.37 285.352 166.851C284.452 166.318 283.405 166.052 282.208 166.052C280.961 166.052 279.856 166.343 278.89 166.928C277.939 167.5 277.192 168.271 276.652 169.245C276.113 170.206 275.836 171.277 275.824 172.458V177.347C275.824 178.826 276.094 180.106 276.634 181.182C277.187 182.26 277.965 183.091 278.968 183.676C279.971 184.26 281.161 184.551 282.536 184.551C283.449 184.551 284.284 184.423 285.043 184.162C285.802 183.902 286.452 183.513 286.992 182.993C287.531 182.474 287.944 181.838 288.226 181.086L295.827 181.592C295.44 183.436 294.651 185.045 293.454 186.421C292.271 187.785 290.74 188.849 288.862 189.615C286.998 190.368 284.844 190.745 282.402 190.745Z" fill="white"/>
</g>
<defs>
<clipPath id="clip0_7623_74">
<rect width="350" height="350" fill="white"/>
</clipPath>
</defs>
</svg>
